# xmcd
#
# Track frame offsets: 
#        150
#        18287
#        33045
#        48362
#        62086
#        78823
#        93572
#        109175
#        126618
#        142956
#        156590
#        173973
#
# Disc length: 2535 seconds
#
# Revision: 0
# Processed by: cddbd v1.5.2PL0 Copyright (c) Steve Scherf et al.
# Submitted via: ExactAudioCopy v1.3
#
DISCID=9c09e50c
DTITLE=Tālbraucēji - Rīta sapnī
DYEAR=2010
DGENRE=Latvian
TTITLE0=Rīta sapnī
TTITLE1=Maldu balss
TTITLE2=Lietus lāse
TTITLE3=Tā notiek
TTITLE4=Ābeles ziedi
TTITLE5=Ziedu puteklītis
TTITLE6=Tāda ir dzīve
TTITLE7=Tavs vārds
TTITLE8=Sniegotā naktī
TTITLE9=Vasaras vidū
TTITLE10=Klusums
TTITLE11=Mirdz laukos sniegs
EXTD=
EXTT0=
EXTT1=
EXTT2=
EXTT3=
EXTT4=
EXTT5=
EXTT6=
EXTT7=
EXTT8=
EXTT9=
EXTT10=
EXTT11=
PLAYORDER=
